<?xml version="1.0" encoding="UTF-8"?>
<!DOCTYPE svg PUBLIC "-//W3C//DTD SVG 1.1//EN" "http://www.w3.org/Graphics/SVG/1.1/DTD/svg11.dtd">
<!-- Creator: CorelDRAW 2019 (64-Bit) -->
<svg xmlns="http://www.w3.org/2000/svg" xml:space="preserve" width="2160px" height="2160px" version="1.1" shape-rendering="geometricPrecision" text-rendering="geometricPrecision" image-rendering="optimizeQuality" fill-rule="evenodd" clip-rule="evenodd"
viewBox="0 0 2160 2160"
 xmlns:xlink="http://www.w3.org/1999/xlink"
 xmlns:xodm="http://www.corel.com/coreldraw/odm/2003">
 <g id="Layer_x0020_1">
  <metadata id="CorelCorpID_0Corel-Layer"/>
  <ellipse fill="#2196F3" cx="1077.89" cy="1076.74" rx="1075.18" ry="1075.17"/>
  <g id="_2947046381280">
   <path fill="none" fill-opacity="0.949020" stroke="white" stroke-width="30" stroke-miterlimit="2.61313" stroke-opacity="0.949020" d="M1719.45 1066.67c-8.1,-130.28 -56.46,-259.21 -146.8,-366.88 -224.59,-267.65 -623.64,-302.57 -891.3,-77.98 -267.65,224.6 -302.56,623.64 -77.97,891.3 11.18,13.32 27.72,31.29 39.96,43.65l-262.96 235.11 443.98 -110.33c194.05,88.96 417.69,73.35 595.93,-36.71 25.82,-15.94 50.69,-33.87 74.38,-53.74 159.99,-134.25 236.82,-330.83 224.78,-524.42"/>
   <path fill="none" stroke="white" stroke-width="30" stroke-miterlimit="2.61313" d="M1087.18 233.62c260.38,0 471.46,39.33 471.46,87.85 0,48.51 -211.08,87.84 -471.46,87.84 -260.39,0 -471.47,-39.33 -471.47,-87.84 0,-48.52 211.08,-87.85 471.47,-87.85z"/>
   <path fill="none" stroke="white" stroke-width="30" stroke-miterlimit="2.61313" d="M651.17 959.76c0,0 140.23,-207.32 312.7,0"/>
   <path fill="none" stroke="white" stroke-width="30" stroke-miterlimit="2.61313" d="M1218.54 959.22c0,0 140.23,-207.32 312.7,0"/>
   <path fill="none" stroke="white" stroke-width="30" stroke-miterlimit="2.61313" d="M1337.01 1314.36c0,0 -219.74,274.02 -490,0"/>
  </g>
 </g>
</svg>
